# xmcd CD database file
#
# Track frame offsets:
#	150
#	29112
#	48357
#	62212
#	83347
#	103117
#	117312
#	128557
#	151437
#	178820
#	191040
#	213330
#
# Disc length: 3042 seconds
#
# Revision: 4
# Processed by: cddbd v1.5.1PL0 Copyright (c) Steve Scherf et al.
# Submitted via: CDex 1.51
#
DISCID=a70be00c
DTITLE=Diane Schuur - Blues For Schuur
DYEAR=1997
DGENRE=Blues
TTITLE0=I'm Not Ashamed To Sing The Blues
TTITLE1=When Did You Leave Heaven?
TTITLE2=Stormy Monday Blues
TTITLE3=These Blues
TTITLE4=Moonlight and Shadows
TTITLE5=All Right, O.K., You Win (I'm In Love With You)
TTITLE6=Who Will The Next Fool Be?
TTITLE7=Save Your Love For Me
TTITLE8=Someone To Love
TTITLE9=Toodle Loo On Down
TTITLE10=You've Got To Hurt Before You Heal
TTITLE11=I Want To Go Home
EXTD=YEAR: 1997
EXTT0=
EXTT1=
EXTT2=
EXTT3=
EXTT4=
EXTT5=
EXTT6=
EXTT7=
EXTT8=
EXTT9=
EXTT10=
EXTT11=
PLAYORDER=
